<svg width="24" height="24" viewBox="0 0 24 24" fill="none" xmlns="http://www.w3.org/2000/svg">
<path d="M12 2.24225C10.6868 2.24225 9.38642 2.50091 8.17317 3.00345C6.95991 3.506 5.85752 4.24259 4.92893 5.17118C3.05357 7.04654 2 9.59008 2 12.2422C2 16.6622 4.87 20.4122 8.84 21.7422C9.34 21.8222 9.5 21.5122 9.5 21.2422V19.5522C6.73 20.1522 6.14 18.2122 6.14 18.2122C5.68 17.0522 5.03 16.7422 5.03 16.7422C4.12 16.1222 5.1 16.1422 5.1 16.1422C6.1 16.2122 6.63 17.1722 6.63 17.1722C7.5 18.6922 8.97 18.2422 9.54 18.0022C9.63 17.3522 9.89 16.9122 10.17 16.6622C7.95 16.4122 5.62 15.5522 5.62 11.7422C5.62 10.6322 6 9.74225 6.65 9.03225C6.55 8.78225 6.2 7.74225 6.75 6.39225C6.75 6.39225 7.59 6.12225 9.5 7.41225C10.29 7.19225 11.15 7.08225 12 7.08225C12.85 7.08225 13.71 7.19225 14.5 7.41225C16.41 6.12225 17.25 6.39225 17.25 6.39225C17.8 7.74225 17.45 8.78225 17.35 9.03225C18 9.74225 18.38 10.6322 18.38 11.7422C18.38 15.5622 16.04 16.4022 13.81 16.6522C14.17 16.9622 14.5 17.5722 14.5 18.5022V21.2422C14.5 21.5122 14.66 21.8322 15.17 21.7422C19.14 20.4022 22 16.6622 22 12.2422C22 10.929 21.7413 9.62867 21.2388 8.41541C20.7362 7.20216 19.9997 6.09977 19.0711 5.17118C18.1425 4.24259 17.0401 3.506 15.8268 3.00345C14.6136 2.50091 13.3132 2.24225 12 2.24225Z" fill="white"/>
</svg>
